<?xml version="1.0" encoding="UTF-8" standalone="no"?>
<svg
   xmlns:dc="http://purl.org/dc/elements/1.1/"
   xmlns:cc="http://creativecommons.org/ns#"
   xmlns:rdf="http://www.w3.org/1999/02/22-rdf-syntax-ns#"
   xmlns:svg="http://www.w3.org/2000/svg"
   xmlns="http://www.w3.org/2000/svg"
   xmlns:sodipodi="http://sodipodi.sourceforge.net/DTD/sodipodi-0.dtd"
   xmlns:inkscape="http://www.inkscape.org/namespaces/inkscape"
   width="33.230598mm"
   height="6.6145835mm"
   viewBox="0 0 33.230598 6.6145835"
   version="1.1"
   id="svg8"
   inkscape:version="1.0.2 (e86c8708, 2021-01-15)"
   sodipodi:docname="at-wz-typo-logo.svg">
  <defs
     id="defs2" />
  <sodipodi:namedview
     id="base"
     pagecolor="#ffffff"
     bordercolor="#666666"
     borderopacity="1.0"
     inkscape:pageopacity="0.0"
     inkscape:pageshadow="2"
     inkscape:zoom="1.3091339"
     inkscape:cx="223.05188"
     inkscape:cy="16.961062"
     inkscape:document-units="mm"
     inkscape:current-layer="layer1"
     inkscape:document-rotation="0"
     showgrid="false"
     fit-margin-top="0"
     fit-margin-left="0"
     fit-margin-right="0"
     fit-margin-bottom="0"
     inkscape:window-width="1252"
     inkscape:window-height="872"
     inkscape:window-x="0"
     inkscape:window-y="0"
     inkscape:window-maximized="0" />
  <metadata
     id="metadata5">
    <rdf:RDF>
      <cc:Work
         rdf:about="">
        <dc:format>image/svg+xml</dc:format>
        <dc:type
           rdf:resource="http://purl.org/dc/dcmitype/StillImage" />
        <dc:title></dc:title>
      </cc:Work>
    </rdf:RDF>
  </metadata>
  <g
     inkscape:label="Layer 1"
     inkscape:groupmode="layer"
     id="layer1"
     transform="translate(82.907047,-94.467604)">
    <g
       aria-label="Atext-wordZ"
       id="text12"
       style="font-style:normal;font-variant:normal;font-weight:normal;font-stretch:normal;font-size:10.5833px;line-height:1.25;font-family:'.Savoye LET CC.';-inkscape-font-specification:'.Savoye LET CC.';stroke-width:0.264583"
       transform="matrix(0.55765437,0,0,0.55765437,-67.892879,42.463562)">
      <path
         d="m -16.771961,101.11918 -0.773395,3.60646 h -0.521024 q -0.301217,-0.96064 -0.968779,-1.86429 -0.659421,-0.90365 -1.497944,-1.4898 -0.553588,0.86294 -1.237432,1.54679 -0.683844,0.68384 -1.457239,1.1723 -0.765254,0.48846 -1.595636,0.75711 -0.830382,0.26866 -1.6282,0.26866 -0.219807,0 -0.472178,-0.0407 l 0.260512,-0.61871 q 0.431473,0.0488 0.65128,0.0488 2.230634,0 3.972808,-1.74217 0.358204,-0.35821 0.724549,-0.82224 0.374486,-0.47218 0.773395,-1.09904 0.887369,-1.392108 1.514226,-2.605117 l 0.765254,-1.473521 q 0.903651,-1.734033 1.392111,-2.344608 0.48846,-0.618716 0.968779,-0.618716 0.154679,0 0.268653,0.06513 0.122115,0.06513 0.187243,0.195384 0.06513,0.122115 0.06513,0.276794 0,0.113974 -0.04071,0.333781 -0.0407,0.293076 -0.04885,0.317499 l -1.245573,5.853374 h 0.578011 l -0.05699,0.2768 z m -0.765254,0 h -2.841209 l 0.03256,0.0244 q 0.724549,0.55359 1.245573,1.13974 0.521024,0.58615 1.017625,1.40025 z m -2.621402,-0.2768 h 2.678389 l 1.156022,-5.535877 q 0.05699,-0.268653 0.05699,-0.276794 0.04885,-0.16282 0.04885,-0.293076 0,-0.203525 -0.179102,-0.203525 -0.219807,0 -0.529165,0.464037 -0.309358,0.464037 -1.074612,1.904994 -0.113974,0.219807 -0.464037,0.887369 -0.293076,0.529165 -0.317499,0.586152 l -0.781536,1.424675 q -0.48846,0.887365 -0.594293,1.042045 z"
         style="font-style:normal;font-variant:normal;font-weight:normal;font-stretch:normal;font-family:'.Savoye LET CC.';-inkscape-font-specification:'.Savoye LET CC.';fill:#000000;stroke-width:0.264583"
         id="path18" />
      <path
         d="m -14.048415,100.37835 -0.618716,2.71095 q -0.09769,0.44775 -0.09769,0.635 0,0.29307 0.138397,0.47217 0.138397,0.17911 0.366345,0.17911 0.219807,0 0.398909,-0.12212 0.187243,-0.13025 0.561729,-0.52916 l 0.09769,-0.0977 0.122115,0.12212 q -0.480319,0.58615 -0.805959,0.83038 -0.317499,0.23609 -0.626857,0.23609 -0.390768,0 -0.626857,-0.25237 -0.227948,-0.26051 -0.227948,-0.6757 0,-0.30936 0.122115,-0.89551 l 0.529165,-2.61326 h -0.781536 l 0.05699,-0.2768 h 0.781536 l 0.455896,-2.198068 0.781536,-0.309358 -0.56987,2.507426 h 1.318842 l -0.05699,0.2768 z"
         style="font-style:normal;font-variant:normal;font-weight:normal;font-stretch:normal;font-family:'.Savoye LET CC.';-inkscape-font-specification:'.Savoye LET CC.';fill:#000000;stroke-width:0.264583"
         id="path20" />
      <path
         d="m -9.2764535,103.46378 0.146538,0.12212 q -0.5047419,0.66756 -0.9850605,0.96878 -0.480319,0.29307 -1.033907,0.29307 -0.659421,0 -1.05833,-0.43961 -0.398909,-0.43961 -0.398909,-1.16416 0,-0.73269 0.382627,-1.48166 0.390768,-0.75712 0.968779,-1.24558 0.586152,-0.4966 1.156022,-0.4966 0.3337806,0 0.5454466,0.19539 0.2198069,0.19538 0.2198069,0.50474 0,0.62685 -0.6838435,1.25371 -0.683844,0.62686 -1.864289,1.06647 -0.0081,0.0651 -0.0081,0.14654 0,0.56173 0.309358,0.91993 0.309358,0.35007 0.797818,0.35007 0.382627,0 0.740831,-0.23609 0.3582036,-0.24423 0.7652535,-0.75712 z m -2.6051195,-0.61871 q 0.879228,-0.39077 1.351406,-0.87109 0.317499,-0.32564 0.512883,-0.70012 0.1953836,-0.37449 0.1953836,-0.67571 0,-0.38262 -0.3500626,-0.38262 -0.529165,0 -1.074612,0.83852 -0.537306,0.83038 -0.634998,1.79102 z"
         style="font-style:normal;font-variant:normal;font-weight:normal;font-stretch:normal;font-family:'.Savoye LET CC.';-inkscape-font-specification:'.Savoye LET CC.';fill:#000000;stroke-width:0.264583"
         id="path22" />
      <path
         d="m -6.6378151,101.99026 0.146538,-0.17096 0.146538,-0.17096 q 0.219807,-0.25237 0.65128,-0.77339 l 0.545447,-0.67571 0.08141,-0.10583 h 0.5698699 l -0.08141,0.0895 q -0.6431389,0.6757 -1.0664709,1.14788 -0.65128,0.70827 -0.830382,0.91179 l -0.024423,0.0326 1.156022,2.45858 h -0.740831 l -0.887369,-1.92128 -0.024423,0.0326 q -0.122115,0.13025 -0.464037,0.55359 l -0.4966009,0.60243 q -0.464037,0.57801 -0.610575,0.73269 h -0.56987 l 0.130256,-0.13026 q 0.691985,-0.70012 1.5874949,-1.71775 l 0.317499,-0.3582 -1.0664709,-2.31204 0.5780109,-0.236093 z"
         style="font-style:normal;font-variant:normal;font-weight:normal;font-stretch:normal;font-family:'.Savoye LET CC.';-inkscape-font-specification:'.Savoye LET CC.';fill:#000000;stroke-width:0.264583"
         id="path24" />
      <path
         d="m -3.0517054,100.37835 -0.618716,2.71095 q -0.097692,0.44775 -0.097692,0.635 0,0.29307 0.138397,0.47217 0.138397,0.17911 0.366345,0.17911 0.219807,0 0.398909,-0.12212 0.187243,-0.13025 0.561729,-0.52916 l 0.097692,-0.0977 0.122115,0.12212 q -0.4803189,0.58615 -0.8059589,0.83038 -0.317499,0.23609 -0.626857,0.23609 -0.390768,0 -0.626857,-0.25237 -0.227948,-0.26051 -0.227948,-0.6757 0,-0.30936 0.122115,-0.89551 l 0.529165,-2.61326 h -0.781536 l 0.056987,-0.2768 h 0.781536 l 0.455896,-2.198068 0.781536,-0.309358 -0.56987,2.507426 h 1.3188419 l -0.056987,0.2768 z"
         style="font-style:normal;font-variant:normal;font-weight:normal;font-stretch:normal;font-family:'.Savoye LET CC.';-inkscape-font-specification:'.Savoye LET CC.';fill:#000000;stroke-width:0.264583"
         id="path26" />
      <path
         d="m 1.0608344,102.06353 -0.073269,0.36635 h -1.98640393 l 0.073269,-0.36635 z"
         style="font-style:normal;font-variant:normal;font-weight:normal;font-stretch:normal;font-family:'.Savoye LET CC.';-inkscape-font-specification:'.Savoye LET CC.';fill:#000000;stroke-width:0.264583"
         id="path28" />
      <path
         d="m 2.5584602,100.29694 0.73269,-0.333785 v 0.146535 0.0651 q 0,0.57801 0.032564,1.07461 0.032564,0.4966 0.122115,1.41654 0.113974,1.07461 0.170961,1.3107 0.056987,0.23609 0.195384,0.23609 0.179102,0 0.586152,-0.56987 0.40705,-0.57801 0.7978179,-1.39211 l -0.2523709,-1.95384 0.7408309,-0.333785 0.00814,0.203525 q 0.065128,1.74217 0.138397,2.49929 0.024423,0.19538 0.048846,0.41519 0.024423,0.21166 0.032564,0.33378 0.016282,0.12211 0.040705,0.28493 0.024423,0.15468 0.032564,0.20353 0.065128,0.26865 0.211666,0.26865 0.293076,0 1.009484,-1.16416 0.675703,-1.07461 0.675703,-1.81544 0,-0.5943 -0.390768,-0.86295 L 8.110622,99.75963 q 0.284935,0.32564 0.284935,0.84666 0,0.56987 -0.317499,1.29442 -0.3174989,0.72455 -0.9443559,1.62006 -0.390768,0.54545 -0.716408,0.90365 -0.358204,0.40705 -0.586152,0.40705 -0.179102,0 -0.268653,-0.16282 -0.089551,-0.17096 -0.138397,-0.56987 l -0.179102,-1.45724 q -0.3582039,0.72455 -0.8222409,1.35141 -0.610575,0.83852 -0.97692,0.83852 -0.170961,0 -0.252371,-0.14654 -0.08141,-0.15467 -0.146538,-0.56172 z"
         style="font-style:normal;font-variant:normal;font-weight:normal;font-stretch:normal;font-family:'.Savoye LET CC.';-inkscape-font-specification:'.Savoye LET CC.';fill:#000000;stroke-width:0.264583"
         id="path30" />
      <path
         d="m 8.8291928,103.16257 q 0,-0.73269 0.390768,-1.45724 0.398909,-0.73269 1.0257662,-1.18859 0.626857,-0.45589 1.278137,-0.45589 0.683844,0 1.099035,0.45589 0.423332,0.44776 0.423332,1.16417 0,0.78153 -0.390768,1.51422 -0.382627,0.73269 -1.017625,1.20487 -0.626857,0.46404 -1.269996,0.46404 -0.6919852,0 -1.1153172,-0.46404 -0.423332,-0.47218 -0.423332,-1.23743 z m 3.4843482,-1.79102 q 0,-0.48846 -0.24423,-0.80596 -0.236089,-0.3175 -0.610575,-0.3175 -0.341922,0 -0.659421,0.21981 -0.309358,0.2198 -0.56987,0.64314 -0.2930762,0.48846 -0.4884602,1.13974 -0.187243,0.65128 -0.187243,1.15602 0,0.60243 0.236089,0.92807 0.2360892,0.32564 0.6757032,0.32564 0.708267,0 1.245573,-0.98506 0.276794,-0.50474 0.439614,-1.1316 0.16282,-0.62686 0.16282,-1.1723 z"
         style="font-style:normal;font-variant:normal;font-weight:normal;font-stretch:normal;font-family:'.Savoye LET CC.';-inkscape-font-specification:'.Savoye LET CC.';fill:#000000;stroke-width:0.264583"
         id="path32" />
      <path
         d="m 13.707431,102.4136 q 0.700126,-0.84667 0.936215,-1.57936 -0.659421,-0.36634 -0.659421,-1.050187 0,-0.32564 0.154679,-0.529165 0.154679,-0.203525 0.390768,-0.203525 0.24423,0 0.398909,0.227948 0.154679,0.219807 0.154679,0.578011 0,0.252368 -0.08955,0.561728 0.219807,0.057 0.398909,0.057 0.504742,0 0.830382,-0.29308 h 0.390768 l -0.05699,0.11398 q -0.586152,1.07461 -0.968779,2.11666 -0.374486,1.0339 -0.374486,1.54679 0,0.18724 0.09769,0.31749 0.09769,0.12212 0.236089,0.12212 0.333781,0 1.074612,-0.70827 l 0.130256,0.14654 q -0.227948,0.25237 -0.708267,0.62686 -0.431473,0.34192 -0.805959,0.34192 -0.317499,0 -0.504742,-0.21167 -0.179102,-0.21166 -0.179102,-0.57801 0,-0.61057 0.472178,-1.54679 0.170961,-0.35006 0.439614,-0.79782 0.268653,-0.44775 0.675703,-1.06647 l 0.08141,-0.11397 q -0.268653,0.24423 -0.521024,0.35006 -0.24423,0.0977 -0.561729,0.0977 -0.146538,0 -0.309358,-0.0407 -0.260512,0.79782 -0.97692,1.64448 z m 1.115317,-2.06782 q 0.03256,-0.20352 0.03256,-0.34192 0,-0.284935 -0.09769,-0.447755 -0.08955,-0.16282 -0.236089,-0.16282 -0.08141,0 -0.146538,0.08141 -0.05699,0.07327 -0.05699,0.187243 0,0.382622 0.504742,0.683842 z"
         style="font-style:normal;font-variant:normal;font-weight:normal;font-stretch:normal;font-family:'.Savoye LET CC.';-inkscape-font-specification:'.Savoye LET CC.';fill:#000000;stroke-width:0.264583"
         id="path34" />
      <path
         d="m 23.214466,93.254971 -2.157365,9.386569 q -0.170961,0.74898 -0.170961,1.04205 0,0.26051 0.08955,0.42333 0.09769,0.16282 0.260512,0.16282 0.211666,0 0.512883,-0.3175 l 0.236089,-0.23608 q 0.0081,-0.008 0.01628,-0.0163 0.0081,-0.008 0.02442,-0.0163 l 0.122115,0.11398 -0.06513,0.0733 q -0.309358,0.34193 -0.317499,0.35007 l -0.268653,0.26865 q -0.203525,0.20353 -0.301217,0.25237 -0.08955,0.057 -0.203525,0.057 -0.268653,0 -0.447755,-0.2768 -0.179102,-0.27679 -0.179102,-0.63499 0,-0.21167 0.113974,-0.7734 l 0.08955,-0.46404 q -0.211666,0.51289 -0.667562,1.11532 -0.822241,1.05833 -1.595636,1.05833 -0.464037,0 -0.73269,-0.33378 -0.268653,-0.34192 -0.268653,-0.91993 0,-0.80596 0.423332,-1.6282 0.423332,-0.83038 1.074612,-1.36769 0.659421,-0.53731 1.310701,-0.53731 0.480319,0 0.89551,0.28494 l 1.326983,-6.651198 z m -2.27948,7.473439 q -0.07327,-0.21981 -0.301217,-0.35006 -0.227948,-0.1384 -0.48846,-0.1384 -0.382627,0 -0.789677,0.34192 -0.398909,0.34192 -0.757113,0.96878 -0.260512,0.46404 -0.431473,1.01762 -0.16282,0.54545 -0.16282,0.99321 0,0.39076 0.16282,0.62685 0.170961,0.23609 0.464037,0.23609 0.341922,0 0.73269,-0.35006 0.398909,-0.35006 0.797818,-1.00948 0.268653,-0.44776 0.423332,-0.92808 0.187243,-0.61871 0.268653,-0.9932 z"
         style="font-style:normal;font-variant:normal;font-weight:normal;font-stretch:normal;font-family:'.Savoye LET CC.';-inkscape-font-specification:'.Savoye LET CC.';fill:#000000;stroke-width:0.264583"
         id="path36" />
      <path
         d="m 31.53457,104.0825 -0.423332,0.78968 q -0.374486,0.0326 -0.431473,0.0326 -0.960638,0 -2.246916,-0.44775 l -1.261855,-0.44776 -0.952497,-0.33378 -0.154679,-0.057 q -0.781536,0.61872 -1.392111,0.90365 -0.602434,0.28494 -1.172304,0.28494 -0.439614,0 -0.724549,-0.23609 -0.293076,-0.24423 -0.293076,-0.61057 0,-0.54545 0.553588,-0.87109 0.561729,-0.33378 1.514226,-0.33378 0.439614,0 0.871087,0.057 0.431473,0.057 0.903651,0.18725 l 0.122115,-0.10584 q 1.87243,-1.69332 3.313387,-3.728573 1.440957,-2.043391 2.246916,-4.143769 l -0.146538,-0.03256 q -0.773395,-0.179102 -1.424675,-0.293076 -0.643139,-0.122115 -1.269996,-0.211666 -0.626857,-0.08955 -1.107176,-0.130256 -0.472178,-0.04071 -0.89551,-0.04071 -1.351406,0 -1.945699,0.382627 -0.260512,0.170961 -0.431473,0.439614 -0.170961,0.260512 -0.170961,0.512883 0,0.545447 0.683844,0.89551 0.683844,0.341922 2.149224,0.521024 l -0.610575,0.56987 q -1.172304,-0.170961 -1.815443,-0.65128 -0.643139,-0.48846 -0.643139,-1.204868 0,-0.797818 0.789677,-1.351406 0.496601,-0.358204 1.131599,-0.512883 0.634998,-0.154679 1.54679,-0.154679 0.797818,0 1.587495,0.08141 0.797818,0.07327 1.587495,0.227948 0.797818,0.146538 1.54679,0.358204 l 0.09769,0.02442 q -0.293076,0.8141 -0.862946,1.929417 -0.561729,1.115317 -1.196727,2.092237 -0.805959,1.245573 -1.742174,2.344612 -0.928074,1.09903 -2.051532,2.14108 l -0.138397,0.13026 0.211666,0.057 q 0.431473,0.13025 0.830382,0.26865 0.854805,0.27679 1.147881,0.37448 0.301217,0.0896 0.56987,0.14654 0.838523,0.18725 1.473521,0.18725 0.284935,0 0.626857,-0.0407 z m -5.86152,-0.55359 q -0.928074,-0.28493 -1.652623,-0.28493 -0.521024,0 -0.838523,0.21166 -0.317499,0.21167 -0.317499,0.53731 0,0.21981 0.195384,0.36634 0.195384,0.14654 0.472178,0.14654 0.423332,0 0.871087,-0.19538 0.455896,-0.19539 1.115317,-0.6757 z"
         style="font-style:normal;font-variant:normal;font-weight:normal;font-stretch:normal;font-family:'.Savoye LET CC.';-inkscape-font-specification:'.Savoye LET CC.';fill:#000000;stroke-width:0.264583"
         id="path38" />
    </g>
  </g>
</svg>
