<?xml version="1.0" encoding="UTF-8" standalone="no"?>
<svg
   xmlns:dc="http://purl.org/dc/elements/1.1/"
   xmlns:cc="http://creativecommons.org/ns#"
   xmlns:rdf="http://www.w3.org/1999/02/22-rdf-syntax-ns#"
   xmlns:svg="http://www.w3.org/2000/svg"
   xmlns="http://www.w3.org/2000/svg"
   xmlns:xlink="http://www.w3.org/1999/xlink"
   xmlns:sodipodi="http://sodipodi.sourceforge.net/DTD/sodipodi-0.dtd"
   xmlns:inkscape="http://www.inkscape.org/namespaces/inkscape"
   width="52.916668mm"
   height="19.075371mm"
   viewBox="0 0 52.916667 19.075371"
   version="1.1"
   id="svg722"
   inkscape:version="1.0.2 (e86c8708, 2021-01-15)"
   sodipodi:docname="at-wz-logo.svg">
  <defs
     id="defs716">
    <linearGradient
       inkscape:collect="always"
       xlink:href="#linearGradient507"
       id="linearGradient509"
       x1="-755.26721"
       y1="159.71458"
       x2="-762.35193"
       y2="148.02341"
       gradientUnits="userSpaceOnUse"
       gradientTransform="matrix(0.35126078,0,0,0.35126078,291.86242,42.863156)" />
    <linearGradient
       inkscape:collect="always"
       id="linearGradient507">
      <stop
         style="stop-color:#d45500;stop-opacity:1;"
         offset="0"
         id="stop503" />
      <stop
         style="stop-color:#d45500;stop-opacity:0;"
         offset="1"
         id="stop505" />
    </linearGradient>
    <linearGradient
       inkscape:collect="always"
       xlink:href="#linearGradient631"
       id="linearGradient633"
       x1="-2852.4556"
       y1="610.1059"
       x2="-2879.6868"
       y2="587.08911"
       gradientUnits="userSpaceOnUse"
       gradientTransform="matrix(0.09293774,0,0,0.09293774,291.86242,42.863156)" />
    <linearGradient
       inkscape:collect="always"
       id="linearGradient631">
      <stop
         style="stop-color:#aa4400;stop-opacity:1;"
         offset="0"
         id="stop627" />
      <stop
         style="stop-color:#aa4400;stop-opacity:0;"
         offset="1"
         id="stop629" />
    </linearGradient>
    <radialGradient
       inkscape:collect="always"
       xlink:href="#linearGradient676"
       id="radialGradient678"
       cx="-2586.2068"
       cy="594.68451"
       fx="-2586.2068"
       fy="594.68451"
       r="112.73825"
       gradientTransform="matrix(0.14324234,-0.00213794,5.90204e-4,0.0395438,421.66062,69.4954)"
       gradientUnits="userSpaceOnUse" />
    <linearGradient
       inkscape:collect="always"
       id="linearGradient676">
      <stop
         style="stop-color:#005500;stop-opacity:1;"
         offset="0"
         id="stop672" />
      <stop
         style="stop-color:#005500;stop-opacity:0;"
         offset="1"
         id="stop674" />
    </linearGradient>
  </defs>
  <sodipodi:namedview
     id="base"
     pagecolor="#ffffff"
     bordercolor="#666666"
     borderopacity="1.0"
     inkscape:pageopacity="0.0"
     inkscape:pageshadow="2"
     inkscape:zoom="0.35"
     inkscape:cx="350.40308"
     inkscape:cy="241.22877"
     inkscape:document-units="mm"
     inkscape:current-layer="layer1"
     inkscape:document-rotation="0"
     showgrid="false"
     fit-margin-top="0"
     fit-margin-left="0"
     fit-margin-right="0"
     fit-margin-bottom="0"
     inkscape:window-width="1252"
     inkscape:window-height="872"
     inkscape:window-x="0"
     inkscape:window-y="0"
     inkscape:window-maximized="0" />
  <metadata
     id="metadata719">
    <rdf:RDF>
      <cc:Work
         rdf:about="">
        <dc:format>image/svg+xml</dc:format>
        <dc:type
           rdf:resource="http://purl.org/dc/dcmitype/StillImage" />
        <dc:title></dc:title>
      </cc:Work>
    </rdf:RDF>
  </metadata>
  <g
     inkscape:label="Layer 1"
     inkscape:groupmode="layer"
     id="layer1"
     transform="translate(-13.122518,-84.341554)">
    <path
       style="fill:#ff6600;stroke:none;stroke-width:0.0929388px;stroke-linecap:butt;stroke-linejoin:miter;stroke-opacity:1"
       d="m 19.418244,84.617336 c -9.9637781,11.29135 -0.796896,18.245474 5.389746,13.27117 5.537128,-4.45208 0.76212,-13.299014 -0.729916,-3.030542 -1.1147,7.671596 2.676042,-13.614639 14.636657,-1.738898 -12.202603,-15.483325 -18.935863,6.516006 -19.960249,-0.377448 -2.30381,-15.503185 16.829977,-6.69765 11.717668,5.026374 1.247069,5.752468 7.512545,3.964748 8.677009,-0.843602 -1.32334,5.49206 -3.706202,6.58138 -7.257576,6.48709 -3.551367,-0.0943 -2.904449,-4.269234 -5.637425,-1.90756 -4.158502,3.53698 -11.37115,2.03094 -12.782584,-3.617922 -1.411432,-5.648888 1.634868,-8.035128 5.94667,-13.268662 z"
       id="path413"
       sodipodi:nodetypes="csscscczczc" />
    <path
       style="fill:url(#linearGradient509);fill-opacity:1;stroke:none;stroke-width:0.0929388px;stroke-linecap:butt;stroke-linejoin:miter;stroke-opacity:1"
       d="m 27.103682,94.58202 c 1.309466,-4.101426 -1.859956,-7.7463 -3.025608,0.275944 -1.1147,7.671596 2.676042,-13.614639 14.636657,-1.738898 -12.202603,-15.483325 -18.935863,6.516006 -19.960249,-0.377448 -2.30381,-15.503185 16.829977,-6.69765 11.717668,5.026374 -1.188266,2.053384 1.099407,3.957418 2.429197,4.240628 2.481664,0.52852 5.32651,-1.27994 6.247812,-5.08423 -1.32334,5.49206 -3.706202,6.58138 -7.257576,6.48709 -2.373823,-0.063 -2.871885,-1.94926 -3.757385,-2.48787 -4.226,-4.768254 -1.215252,-3.710998 -1.030516,-6.34159 z"
       id="path501"
       sodipodi:nodetypes="cscscscscc" />
    <ellipse
       style="fill:#ffffff;fill-opacity:1;stroke:none;stroke-width:0.0929388"
       id="path417"
       cx="22.354174"
       cy="86.370163"
       rx="1.0846263"
       ry="1.2051408" />
    <path
       id="path421"
       style="fill:#000000;stroke:none;stroke-width:0.0547428px;stroke-linecap:butt;stroke-linejoin:miter;stroke-opacity:1"
       d="m 31.866131,85.585516 c -0.6028,0.1593 -2.026969,1.116846 -2.885573,1.9502 0.752742,0.24792 1.566894,1.884972 2.598281,0.34145 0.223426,-0.33432 -0.893077,-0.1961 -0.07298,-1.201868 0.80059,-0.934136 0.772718,-1.19877 0.36027,-1.089782 z m -2.953675,2.012436 c -0.912704,0.997008 -2.109476,3.570066 -0.63174,2.362274 0.644508,-0.483532 0.511674,0.654934 0.723752,0.546788 0.97912,-0.499354 0.02484,-2.008068 -0.09202,-2.909062 z" />
    <path
       style="fill:#5aa02c;stroke:none;stroke-width:0.1465px;stroke-linecap:butt;stroke-linejoin:miter;stroke-opacity:1"
       d="m 36.328863,85.097266 c 5.019238,7.162936 12.347898,4.620608 15.379976,3.078492 -6.468066,5.488128 0.64114,10.311006 -13.772896,14.813852 7.457958,-2.4189 13.2524,3.46455 22.637898,-4.554794 -6.299734,5.579484 -10.620656,0.92894 -21.424682,-1.510426 8.548808,-1.2529 13.52066,-6.863512 26.890026,-0.04198 C 51.820231,99.663348 39.720463,90.485736 36.328863,85.097262 Z"
       id="path428"
       sodipodi:nodetypes="ccccccc" />
    <path
       style="fill:#000000;stroke:none;stroke-width:0.0182967px;stroke-linecap:butt;stroke-linejoin:miter;stroke-opacity:1"
       d="m 56.599227,86.738348 c -1.975326,0.423434 -2.509382,1.804012 -2.407454,2.40721 0.290642,1.7202 -1.738046,-1.617534 -2.3752,-1.30711 -1.122808,0.547038 -4.169034,0.971332 -0.300026,-3.340072 2.71515,10.039966 -8.322934,7.889878 -5.18729,-0.14532 -0.0243,4.429968 5.16687,9.094798 5.20614,2.640878 4.158538,7.958202 3.43407,2.038004 5.063922,-0.255584 z"
       id="path426"
       sodipodi:nodetypes="csscccc" />
    <ellipse
       style="fill:#ffffff;fill-opacity:1;stroke:none;stroke-width:0.068113"
       id="path430"
       cx="57.299839"
       cy="77.521927"
       rx="1.0169634"
       ry="1.5341634"
       transform="matrix(0.97420775,0.22565295,-0.10662266,0.99429956,0,0)" />
    <ellipse
       style="fill:#000000;fill-opacity:1;stroke:none;stroke-width:0.10108"
       id="path432"
       cx="36.328854"
       cy="85.09726"
       rx="0.65644127"
       ry="0.75570518" />
    <path
       id="path511"
       style="fill:url(#linearGradient633);fill-opacity:1;stroke:none;stroke-width:0.0929388px;stroke-linecap:butt;stroke-linejoin:miter;stroke-opacity:1"
       d="m 27.185518,94.262264 c -0.07146,0.269424 -0.14976,0.54063 -0.26085,0.813382 -0.13426,0.32961 -0.298778,0.659322 -0.496994,0.983294 -0.0991,0.16198 -0.206758,0.322424 -0.323106,0.480844 -0.06214,0.0846 -0.13354,0.1667 -0.200756,0.24996 -0.762646,1.81156 -1.729106,3.273636 -3.316716,4.600966 1.308358,-1.00492 2.80054,-1.21851 4.329766,-1.942618 -0.0124,-0.0166 -0.03574,-0.0417 -0.04792,-0.05808 -0.16088,-0.216302 -0.29833,-0.41447 -0.41495,-0.596854 -0.11662,-0.18236 -0.212418,-0.34894 -0.289706,-0.502064 -0.07728,-0.15314 -0.13612,-0.292798 -0.17898,-0.421306 -0.04286,-0.12852 -0.06962,-0.245952 -0.08296,-0.35452 -0.0134,-0.10854 -0.0132,-0.208252 -0.0022,-0.301506 0.0112,-0.09324 0.03368,-0.1799 0.06462,-0.262458 0.06188,-0.16514 0.15824,-0.313662 0.269372,-0.463968 0.11114,-0.15032 0.237038,-0.302562 0.358134,-0.475232 0.06056,-0.08632 0.11986,-0.17776 0.17554,-0.276632 0.05568,-0.09888 0.10768,-0.20519 0.15356,-0.321288 0.04588,-0.11608 0.08554,-0.241818 0.11672,-0.379738 0.03116,-0.13792 0.0538,-0.28792 0.06534,-0.45234 0.03442,-0.10776 0.05354,-0.212908 0.08188,-0.319836 z" />
    <path
       id="path637"
       style="fill:#5aa02c;stroke:none;stroke-width:0.1465px;stroke-linecap:butt;stroke-linejoin:miter;stroke-opacity:1"
       d="m 45.968743,98.909344 c -1.406814,1.393766 -3.778094,2.751036 -8.032766,4.080176 7.143556,-2.31694 12.76311,2.97479 21.471894,-3.62148 -4.227782,3.01773 -7.76993,1.47328 -13.439128,-0.458696 z" />
    <path
       id="path654"
       style="fill:#5aa02c;stroke:none;stroke-width:0.1465px;stroke-linecap:butt;stroke-linejoin:miter;stroke-opacity:1"
       d="m 46.899383,102.68057 a 10.865078,4.8999373 0 0 1 -0.02542,-0.009 10.865078,4.8999373 0 0 1 -0.0755,-0.0267 10.865078,4.8999373 0 0 1 -0.07478,-0.0271 10.865078,4.8999373 0 0 1 -0.07442,-0.0274 10.865078,4.8999373 0 0 1 -0.07372,-0.0276 10.865078,4.8999373 0 0 1 -0.07332,-0.028 10.865078,4.8999373 0 0 1 -0.0726,-0.0283 10.865078,4.8999373 0 0 1 -0.07226,-0.0285 10.865078,4.8999373 0 0 1 -0.07152,-0.0287 10.865078,4.8999373 0 0 1 -0.07116,-0.0293 10.865078,4.8999373 0 0 1 -0.07042,-0.0294 10.865078,4.8999373 0 0 1 -0.0699,-0.0296 10.865078,4.8999373 0 0 1 -0.06916,-0.03 10.865078,4.8999373 0 0 1 -0.0688,-0.0302 10.865078,4.8999373 0 0 1 -0.06806,-0.0305 10.865078,4.8999373 0 0 1 -0.06754,-0.0307 10.865078,4.8999373 0 0 1 -0.06682,-0.0311 10.865078,4.8999373 0 0 1 -0.06642,-0.0314 10.865078,4.8999373 0 0 1 -0.06572,-0.0314 10.865078,4.8999373 0 0 1 -0.06498,-0.032 10.865078,4.8999373 0 0 1 -0.06442,-0.032 10.865078,4.8999373 0 0 1 -0.06372,-0.0324 10.865078,4.8999373 0 0 1 -0.06316,-0.0327 10.865078,4.8999373 0 0 1 -0.06264,-0.0327 10.865078,4.8999373 0 0 1 -0.0619,-0.0333 10.865078,4.8999373 0 0 1 -0.06118,-0.0333 10.865078,4.8999373 0 0 1 -0.06062,-0.0336 10.865078,4.8999373 0 0 1 -0.0599,-0.0338 10.865078,4.8999373 0 0 1 -0.05918,-0.0342 10.865078,4.8999373 0 0 1 -0.05862,-0.0341 10.865078,4.8999373 0 0 1 -0.0579,-0.0345 10.865078,4.8999373 0 0 1 -0.05718,-0.0349 10.865078,4.8999373 0 0 1 -0.05662,-0.0349 10.865078,4.8999373 0 0 1 -0.05594,-0.0352 10.865078,4.8999373 0 0 1 -0.05516,-0.0354 10.865078,4.8999373 0 0 1 -0.05444,-0.0356 10.865078,4.8999373 0 0 1 -0.05372,-0.0359 10.865078,4.8999373 0 0 1 -0.05302,-0.0359 10.865078,4.8999373 0 0 1 -0.05244,-0.0363 10.865078,4.8999373 0 0 1 -0.05176,-0.0365 10.865078,4.8999373 0 0 1 -0.05082,-0.0367 10.865078,4.8999373 0 0 1 -0.05026,-0.0369 10.865078,4.8999373 0 0 1 -0.04956,-0.037 10.865078,4.8999373 0 0 1 -0.04866,-0.0372 10.865078,4.8999373 0 0 1 -0.04808,-0.0376 10.865078,4.8999373 0 0 1 -0.0472,-0.0376 10.865078,4.8999373 0 0 1 -0.04664,-0.0378 10.865078,4.8999373 0 0 1 -0.04574,-0.0381 10.865078,4.8999373 0 0 1 -0.04522,-0.0381 10.865078,4.8999373 0 0 1 -0.04428,-0.0385 10.865078,4.8999373 0 0 1 -0.04358,-0.0385 10.865078,4.8999373 0 0 1 -0.04282,-0.0387 10.865078,4.8999373 0 0 1 -0.04194,-0.039 10.865078,4.8999373 0 0 1 -0.04138,-0.039 10.865078,4.8999373 0 0 1 -0.04048,-0.0392 10.865078,4.8999373 0 0 1 -0.03976,-0.0394 10.865078,4.8999373 0 0 1 -0.03902,-0.0396 10.865078,4.8999373 0 0 1 -0.0383,-0.0396 10.865078,4.8999373 0 0 1 -0.0374,-0.0399 10.865078,4.8999373 0 0 1 -0.0044,-0.005 c -1.37232,0.77501 -3.173936,1.53959 -5.591878,2.29496 3.150394,-1.0218 6.010638,-0.57635 8.963408,-0.30895 z" />
    <path
       id="path660"
       style="fill:url(#radialGradient678);fill-opacity:1;stroke:none;stroke-width:0.1465px;stroke-linecap:butt;stroke-linejoin:miter;stroke-opacity:1"
       d="m 53.554959,93.907764 a 10.865078,4.8999373 0 0 0 -0.08494,1.86e-4 10.865078,4.8999373 0 0 0 -0.09586,7.04e-4 10.865078,4.8999373 0 0 0 -0.09602,0.0011 10.865078,4.8999373 0 0 0 -0.09584,0.0014 10.865078,4.8999373 0 0 0 -0.09584,0.0018 10.865078,4.8999373 0 0 0 -0.09584,0.0022 10.865078,4.8999373 0 0 0 -0.09586,0.0024 10.865078,4.8999373 0 0 0 -0.09566,0.0028 10.865078,4.8999373 0 0 0 -0.09584,0.0032 10.865078,4.8999373 0 0 0 -0.09548,0.0036 10.865078,4.8999373 0 0 0 -0.09566,0.0038 10.865078,4.8999373 0 0 0 -0.0955,0.0044 10.865078,4.8999373 0 0 0 -0.09528,0.0048 10.865078,4.8999373 0 0 0 -0.0953,0.0052 10.865078,4.8999373 0 0 0 -0.09512,0.0054 10.865078,4.8999373 0 0 0 -0.09512,0.0058 10.865078,4.8999373 0 0 0 -0.09494,0.0062 10.865078,4.8999373 0 0 0 -0.09474,0.0068 10.865078,4.8999373 0 0 0 -0.09476,0.0068 10.865078,4.8999373 0 0 0 -0.09458,0.0074 10.865078,4.8999373 0 0 0 -0.0944,0.0078 10.865078,4.8999373 0 0 0 -0.0942,0.008 10.865078,4.8999373 0 0 0 -0.09404,0.0086 10.865078,4.8999373 0 0 0 -0.09384,0.0088 10.865078,4.8999373 0 0 0 -0.09384,0.0092 10.865078,4.8999373 0 0 0 -0.0935,0.0096 10.865078,4.8999373 0 0 0 -0.09328,0.01 10.865078,4.8999373 0 0 0 -0.09312,0.0104 10.865078,4.8999373 0 0 0 -0.09296,0.0108 10.865078,4.8999373 0 0 0 -0.09274,0.011 10.865078,4.8999373 0 0 0 -0.09258,0.0116 10.865078,4.8999373 0 0 0 -0.09222,0.0118 10.865078,4.8999373 0 0 0 -0.09202,0.0122 10.865078,4.8999373 0 0 0 -0.09184,0.0126 10.865078,4.8999373 0 0 0 -0.09168,0.013 10.865078,4.8999373 0 0 0 -0.0913,0.0132 10.865078,4.8999373 0 0 0 -0.09096,0.0136 10.865078,4.8999373 0 0 0 -0.09076,0.014 10.865078,4.8999373 0 0 0 -0.09058,0.0146 10.865078,4.8999373 0 0 0 -0.09002,0.0148 10.865078,4.8999373 0 0 0 -0.09004,0.015 10.865078,4.8999373 0 0 0 -0.08948,0.0154 10.865078,4.8999373 0 0 0 -0.08932,0.0158 10.865078,4.8999373 0 0 0 -0.08912,0.0164 10.865078,4.8999373 0 0 0 -0.08858,0.0166 10.865078,4.8999373 0 0 0 -0.0884,0.017 10.865078,4.8999373 0 0 0 -0.08804,0.0172 10.865078,4.8999373 0 0 0 -0.0875,0.0174 10.865078,4.8999373 0 0 0 -0.08748,0.018 10.865078,4.8999373 0 0 0 -0.08696,0.0184 10.865078,4.8999373 0 0 0 -0.0866,0.0186 10.865078,4.8999373 0 0 0 -0.0862,0.019 10.865078,4.8999373 0 0 0 -0.08586,0.0192 10.865078,4.8999373 0 0 0 -0.0855,0.0198 10.865078,4.8999373 0 0 0 -0.08496,0.02 10.865078,4.8999373 0 0 0 -0.08476,0.02036 10.865078,4.8999373 0 0 0 -0.08424,0.02054 10.865078,4.8999373 0 0 0 -0.08404,0.0211 10.865078,4.8999373 0 0 0 -0.0833,0.02146 10.865078,4.8999373 0 0 0 -0.08314,0.02162 10.865078,4.8999373 0 0 0 -0.08256,0.02198 10.865078,4.8999373 0 0 0 -0.08224,0.02236 10.865078,4.8999373 0 0 0 -0.08168,0.02272 10.865078,4.8999373 0 0 0 -0.08132,0.02308 10.865078,4.8999373 0 0 0 -0.08096,0.02324 10.865078,4.8999373 0 0 0 -0.08024,0.02364 10.865078,4.8999373 0 0 0 -0.08004,0.02398 10.865078,4.8999373 0 0 0 -0.07932,0.02416 10.865078,4.8999373 0 0 0 -0.07896,0.02472 10.865078,4.8999373 0 0 0 -0.0786,0.0249 10.865078,4.8999373 0 0 0 -0.07804,0.02526 10.865078,4.8999373 0 0 0 -0.0775,0.02546 10.865078,4.8999373 0 0 0 -0.07698,0.02582 10.865078,4.8999373 0 0 0 -0.07642,0.02616 10.865078,4.8999373 0 0 0 -0.07604,0.02656 10.865078,4.8999373 0 0 0 -0.07532,0.02672 10.865078,4.8999373 0 0 0 -0.07496,0.02708 10.865078,4.8999373 0 0 0 -0.07444,0.02726 10.865078,4.8999373 0 0 0 -0.07386,0.02782 10.865078,4.8999373 0 0 0 -0.07332,0.02782 10.865078,4.8999373 0 0 0 -0.0728,0.02834 10.865078,4.8999373 0 0 0 -0.07224,0.02852 10.865078,4.8999373 0 0 0 -0.07154,0.0287 10.865078,4.8999373 0 0 0 -0.07114,0.02908 10.865078,4.8999373 0 0 0 -0.0706,0.02944 10.865078,4.8999373 0 0 0 -0.06988,0.02962 10.865078,4.8999373 0 0 0 -0.06936,0.03 10.865078,4.8999373 0 0 0 -0.06878,0.03018 10.865078,4.8999373 0 0 0 -0.06808,0.03052 10.865078,4.8999373 0 0 0 -0.0677,0.0307 10.865078,4.8999373 0 0 0 -0.06698,0.03092 10.865078,4.8999373 0 0 0 -0.06626,0.03144 10.865078,4.8999373 0 0 0 -0.0657,0.03144 10.865078,4.8999373 0 0 0 -0.06518,0.0318 10.865078,4.8999373 0 0 0 -0.06462,0.03218 10.865078,4.8999373 0 0 0 -0.06372,0.03236 10.865078,4.8999373 0 0 0 -0.06336,0.03254 10.865078,4.8999373 0 0 0 -0.0626,0.0327 10.865078,4.8999373 0 0 0 -0.0619,0.03306 10.865078,4.8999373 0 0 0 -0.06136,0.03344 10.865078,4.8999373 0 0 0 -0.06062,0.03362 10.865078,4.8999373 0 0 0 -0.0599,0.0338 10.865078,4.8999373 0 0 0 -0.05936,0.03398 10.865078,4.8999373 0 0 0 -0.05864,0.03416 10.865078,4.8999373 0 0 0 -0.05808,0.03454 10.865078,4.8999373 0 0 0 -0.05738,0.03488 10.865078,4.8999373 0 0 0 -0.05662,0.03488 10.865078,4.8999373 0 0 0 -0.0559,0.03524 10.865078,4.8999373 0 0 0 -0.05518,0.0352 10.865078,4.8999373 0 0 0 -0.05464,0.03576 10.865078,4.8999373 0 0 0 -0.05374,0.03576 10.865078,4.8999373 0 0 0 -0.05318,0.03594 10.865078,4.8999373 0 0 0 -0.05246,0.03632 10.865078,4.8999373 0 0 0 -0.05174,0.03648 10.865078,4.8999373 0 0 0 -0.051,0.03648 10.865078,4.8999373 0 0 0 -0.05028,0.03684 10.865078,4.8999373 0 0 0 -0.04972,0.03702 10.865078,4.8999373 0 0 0 -0.04884,0.03738 10.865078,4.8999373 0 0 0 -0.0481,0.0374 10.865078,4.8999373 0 0 0 -0.04738,0.03758 10.865078,4.8999373 0 0 0 -0.04666,0.03776 10.865078,4.8999373 0 0 0 -0.04592,0.03812 10.865078,4.8999373 0 0 0 -0.0452,0.03812 10.865078,4.8999373 0 0 0 -0.04428,0.0383 10.865078,4.8999373 0 0 0 -0.04374,0.03866 10.865078,4.8999373 0 0 0 -0.04286,0.03866 10.865078,4.8999373 0 0 0 -0.04212,0.03884 10.865078,4.8999373 0 0 0 -0.04136,0.03902 10.865078,4.8999373 0 0 0 -0.04066,0.03922 10.865078,4.8999373 0 0 0 -0.03976,0.03938 10.865078,4.8999373 0 0 0 -0.0392,0.03938 10.865078,4.8999373 0 0 0 -0.0383,0.03976 10.865078,4.8999373 0 0 0 -0.0374,0.03976 10.865078,4.8999373 0 0 0 -0.03686,0.04012 10.865078,4.8999373 0 0 0 -0.03594,0.04012 10.865078,4.8999373 0 0 0 -0.03522,0.04012 10.865078,4.8999373 0 0 0 -0.0343,0.04048 10.865078,4.8999373 0 0 0 -0.03358,0.04048 10.865078,4.8999373 0 0 0 -0.03284,0.04066 10.865078,4.8999373 0 0 0 -0.03194,0.04084 10.865078,4.8999373 0 0 0 -0.03122,0.04084 10.865078,4.8999373 0 0 0 -0.0303,0.04102 10.865078,4.8999373 0 0 0 -0.0296,0.0412 10.865078,4.8999373 0 0 0 -0.02886,0.04138 10.865078,4.8999373 0 0 0 -0.02796,0.04138 10.865078,4.8999373 0 0 0 -0.02706,0.0414 10.865078,4.8999373 0 0 0 -0.02652,0.04156 10.865078,4.8999373 0 0 0 -0.02542,0.04176 10.865078,4.8999373 0 0 0 -0.0247,0.04192 10.865078,4.8999373 0 0 0 -0.02396,0.04176 10.865078,4.8999373 0 0 0 -0.02306,0.0421 10.865078,4.8999373 0 0 0 -0.02234,0.04212 10.865078,4.8999373 0 0 0 -0.02142,0.04212 10.865078,4.8999373 0 0 0 -0.02052,0.0423 10.865078,4.8999373 0 0 0 -0.0198,0.0423 10.865078,4.8999373 0 0 0 -0.0188,0.04248 10.865078,4.8999373 0 0 0 -0.0182,0.04248 10.865078,4.8999373 0 0 0 -0.0014,0.0032 c 1.106886,0.331716 2.12581,0.671916 3.093802,1.0018 1.426114,-1.412922 1.85906,-2.864728 2.226684,-4.362444 4.479534,2.053492 9.838626,3.321208 15.63479,2.668498 a 10.865078,4.8999373 0 0 0 -0.0126,-0.0166 10.865078,4.8999373 0 0 0 -0.032,-0.04084 10.865078,4.8999373 0 0 0 -0.0327,-0.04066 10.865078,4.8999373 0 0 0 -0.03344,-0.04066 10.865078,4.8999373 0 0 0 -0.03436,-0.0403 10.865078,4.8999373 0 0 0 -0.03506,-0.0403 10.865078,4.8999373 0 0 0 -0.03596,-0.04012 10.865078,4.8999373 0 0 0 -0.03668,-0.03992 10.865078,4.8999373 0 0 0 -0.03738,-0.03994 10.865078,4.8999373 0 0 0 -0.0383,-0.03976 10.865078,4.8999373 0 0 0 -0.03884,-0.03938 10.865078,4.8999373 0 0 0 -0.03974,-0.03938 10.865078,4.8999373 0 0 0 -0.04066,-0.0392 10.865078,4.8999373 0 0 0 -0.0412,-0.0392 10.865078,4.8999373 0 0 0 -0.04212,-0.03884 10.865078,4.8999373 0 0 0 -0.04284,-0.03866 10.865078,4.8999373 0 0 0 -0.04358,-0.03848 10.865078,4.8999373 0 0 0 -0.04428,-0.03848 10.865078,4.8999373 0 0 0 -0.04502,-0.03812 10.865078,4.8999373 0 0 0 -0.04594,-0.03812 10.865078,4.8999373 0 0 0 -0.04646,-0.03778 10.865078,4.8999373 0 0 0 -0.04738,-0.03776 10.865078,4.8999373 0 0 0 -0.04794,-0.0374 10.865078,4.8999373 0 0 0 -0.04882,-0.0372 10.865078,4.8999373 0 0 0 -0.04956,-0.03702 10.865078,4.8999373 0 0 0 -0.0501,-0.03684 10.865078,4.8999373 0 0 0 -0.05102,-0.03666 10.865078,4.8999373 0 0 0 -0.05174,-0.0365 10.865078,4.8999373 0 0 0 -0.05226,-0.0363 10.865078,4.8999373 0 0 0 -0.0532,-0.03612 10.865078,4.8999373 0 0 0 -0.05372,-0.03576 10.865078,4.8999373 0 0 0 -0.05444,-0.03558 10.865078,4.8999373 0 0 0 -0.0552,-0.03542 10.865078,4.8999373 0 0 0 -0.0559,-0.0352 10.865078,4.8999373 0 0 0 -0.05644,-0.03506 10.865078,4.8999373 0 0 0 -0.05718,-0.03472 10.865078,4.8999373 0 0 0 -0.05808,-0.03454 10.865078,4.8999373 0 0 0 -0.05844,-0.03436 10.865078,4.8999373 0 0 0 -0.05936,-0.03398 10.865078,4.8999373 0 0 0 -0.0599,-0.0338 10.865078,4.8999373 0 0 0 -0.06062,-0.03362 10.865078,4.8999373 0 0 0 -0.06118,-0.03344 10.865078,4.8999373 0 0 0 -0.0619,-0.03306 10.865078,4.8999373 0 0 0 -0.06244,-0.03288 10.865078,4.8999373 0 0 0 -0.06318,-0.03254 10.865078,4.8999373 0 0 0 -0.0639,-0.03236 10.865078,4.8999373 0 0 0 -0.06444,-0.03218 10.865078,4.8999373 0 0 0 -0.06496,-0.0318 10.865078,4.8999373 0 0 0 -0.06572,-0.03162 10.865078,4.8999373 0 0 0 -0.06626,-0.03126 10.865078,4.8999373 0 0 0 -0.06696,-0.0311 10.865078,4.8999373 0 0 0 -0.06754,-0.0307 10.865078,4.8999373 0 0 0 -0.06808,-0.03052 10.865078,4.8999373 0 0 0 -0.0686,-0.03018 10.865078,4.8999373 0 0 0 -0.06936,-0.03 10.865078,4.8999373 0 0 0 -0.06986,-0.02978 10.865078,4.8999373 0 0 0 -0.07044,-0.02926 10.865078,4.8999373 0 0 0 -0.07096,-0.02926 10.865078,4.8999373 0 0 0 -0.0717,-0.0287 10.865078,4.8999373 0 0 0 -0.07208,-0.0287 10.865078,4.8999373 0 0 0 -0.07278,-0.02818 10.865078,4.8999373 0 0 0 -0.07316,-0.028 10.865078,4.8999373 0 0 0 -0.07386,-0.0276 10.865078,4.8999373 0 0 0 -0.07424,-0.02744 10.865078,4.8999373 0 0 0 -0.07496,-0.02708 10.865078,4.8999373 0 0 0 -0.07534,-0.02674 10.865078,4.8999373 0 0 0 -0.07588,-0.02652 10.865078,4.8999373 0 0 0 -0.0766,-0.02616 10.865078,4.8999373 0 0 0 -0.07678,-0.026 10.865078,4.8999373 0 0 0 -0.07752,-0.02546 10.865078,4.8999373 0 0 0 -0.07786,-0.02526 10.865078,4.8999373 0 0 0 -0.07862,-0.02508 10.865078,4.8999373 0 0 0 -0.07878,-0.02456 10.865078,4.8999373 0 0 0 -0.0795,-0.02438 10.865078,4.8999373 0 0 0 -0.07986,-0.02398 10.865078,4.8999373 0 0 0 -0.08024,-0.02364 10.865078,4.8999373 0 0 0 -0.08078,-0.02346 10.865078,4.8999373 0 0 0 -0.0813,-0.02308 10.865078,4.8999373 0 0 0 -0.08168,-0.02272 10.865078,4.8999373 0 0 0 -0.08224,-0.02236 10.865078,4.8999373 0 0 0 -0.0826,-0.02198 10.865078,4.8999373 0 0 0 -0.08296,-0.0218 10.865078,4.8999373 0 0 0 -0.08332,-0.02128 10.865078,4.8999373 0 0 0 -0.08388,-0.02106 10.865078,4.8999373 0 0 0 -0.0842,-0.02072 10.865078,4.8999373 0 0 0 -0.08478,-0.02054 10.865078,4.8999373 0 0 0 -0.08496,-0.02 10.865078,4.8999373 0 0 0 -0.0855,-0.0196 10.865078,4.8999373 0 0 0 -0.08586,-0.0194 10.865078,4.8999373 0 0 0 -0.08622,-0.019 10.865078,4.8999373 0 0 0 -0.0864,-0.0188 10.865078,4.8999373 0 0 0 -0.08694,-0.0182 10.865078,4.8999373 0 0 0 -0.08732,-0.018 10.865078,4.8999373 0 0 0 -0.08768,-0.0178 10.865078,4.8999373 0 0 0 -0.08786,-0.0172 10.865078,4.8999373 0 0 0 -0.0884,-0.017 10.865078,4.8999373 0 0 0 -0.08856,-0.0166 10.865078,4.8999373 0 0 0 -0.08896,-0.0162 10.865078,4.8999373 0 0 0 -0.0893,-0.016 10.865078,4.8999373 0 0 0 -0.08948,-0.0154 10.865078,4.8999373 0 0 0 -0.09004,-0.0152 10.865078,4.8999373 0 0 0 -0.09002,-0.0148 10.865078,4.8999373 0 0 0 -0.09056,-0.0146 10.865078,4.8999373 0 0 0 -0.09058,-0.014 10.865078,4.8999373 0 0 0 -0.09112,-0.0138 10.865078,4.8999373 0 0 0 -0.09132,-0.0132 10.865078,4.8999373 0 0 0 -0.09148,-0.013 10.865078,4.8999373 0 0 0 -0.09168,-0.0126 10.865078,4.8999373 0 0 0 -0.09202,-0.0124 10.865078,4.8999373 0 0 0 -0.0922,-0.0118 10.865078,4.8999373 0 0 0 -0.0926,-0.0116 10.865078,4.8999373 0 0 0 -0.09276,-0.011 10.865078,4.8999373 0 0 0 -0.09296,-0.0108 10.865078,4.8999373 0 0 0 -0.0931,-0.0106 10.865078,4.8999373 0 0 0 -0.09328,-0.01 10.865078,4.8999373 0 0 0 -0.0935,-0.0096 10.865078,4.8999373 0 0 0 -0.09366,-0.0092 10.865078,4.8999373 0 0 0 -0.09384,-0.0088 10.865078,4.8999373 0 0 0 -0.0942,-0.0086 10.865078,4.8999373 0 0 0 -0.09422,-0.0082 10.865078,4.8999373 0 0 0 -0.09438,-0.0078 10.865078,4.8999373 0 0 0 -0.0944,-0.0074 10.865078,4.8999373 0 0 0 -0.09476,-0.0072 10.865078,4.8999373 0 0 0 -0.09474,-0.0068 10.865078,4.8999373 0 0 0 -0.09492,-0.0062 10.865078,4.8999373 0 0 0 -0.09512,-0.006 10.865078,4.8999373 0 0 0 -0.09512,-0.0054 10.865078,4.8999373 0 0 0 -0.0953,-0.0052 10.865078,4.8999373 0 0 0 -0.0953,-0.0048 10.865078,4.8999373 0 0 0 -0.09548,-0.0044 10.865078,4.8999373 0 0 0 -0.0955,-0.004 10.865078,4.8999373 0 0 0 -0.09566,-0.0036 10.865078,4.8999373 0 0 0 -0.09566,-0.0032 10.865078,4.8999373 0 0 0 -0.09566,-0.0028 10.865078,4.8999373 0 0 0 -0.09584,-0.0024 10.865078,4.8999373 0 0 0 -0.09586,-0.0022 10.865078,4.8999373 0 0 0 -0.09582,-0.0018 10.865078,4.8999373 0 0 0 -0.09584,-0.0014 10.865078,4.8999373 0 0 0 -0.09602,-0.0011 10.865078,4.8999373 0 0 0 -0.09582,-7.04e-4 10.865078,4.8999373 0 0 0 -0.09604,-1.86e-4 z m -7.586216,5.00158 c -0.607318,0.60169 -1.398444,1.196536 -2.440888,1.785226 a 10.865078,4.8999373 0 0 0 0.0044,0.005 10.865078,4.8999373 0 0 0 0.0374,0.0399 10.865078,4.8999373 0 0 0 0.0383,0.0396 10.865078,4.8999373 0 0 0 0.03902,0.0396 10.865078,4.8999373 0 0 0 0.03976,0.0394 10.865078,4.8999373 0 0 0 0.04048,0.0392 10.865078,4.8999373 0 0 0 0.04138,0.039 10.865078,4.8999373 0 0 0 0.04194,0.039 10.865078,4.8999373 0 0 0 0.04282,0.0387 10.865078,4.8999373 0 0 0 0.04358,0.0385 10.865078,4.8999373 0 0 0 0.0443,0.0385 10.865078,4.8999373 0 0 0 0.0452,0.0381 10.865078,4.8999373 0 0 0 0.04574,0.0381 10.865078,4.8999373 0 0 0 0.04664,0.0378 10.865078,4.8999373 0 0 0 0.0472,0.0376 10.865078,4.8999373 0 0 0 0.0481,0.0376 10.865078,4.8999373 0 0 0 0.04866,0.0372 10.865078,4.8999373 0 0 0 0.04956,0.037 10.865078,4.8999373 0 0 0 0.05026,0.0369 10.865078,4.8999373 0 0 0 0.05082,0.0367 10.865078,4.8999373 0 0 0 0.05176,0.0365 10.865078,4.8999373 0 0 0 0.05244,0.0363 10.865078,4.8999373 0 0 0 0.05302,0.0359 10.865078,4.8999373 0 0 0 0.05372,0.0359 10.865078,4.8999373 0 0 0 0.05444,0.0356 10.865078,4.8999373 0 0 0 0.05516,0.0354 10.865078,4.8999373 0 0 0 0.05594,0.0352 10.865078,4.8999373 0 0 0 0.05662,0.0349 10.865078,4.8999373 0 0 0 0.05718,0.0349 10.865078,4.8999373 0 0 0 0.0579,0.0345 10.865078,4.8999373 0 0 0 0.05862,0.0341 10.865078,4.8999373 0 0 0 0.05918,0.0341 10.865078,4.8999373 0 0 0 0.0599,0.0338 10.865078,4.8999373 0 0 0 0.06062,0.0336 10.865078,4.8999373 0 0 0 0.06118,0.0333 10.865078,4.8999373 0 0 0 0.0619,0.0333 10.865078,4.8999373 0 0 0 0.06264,0.0327 10.865078,4.8999373 0 0 0 0.06316,0.0327 10.865078,4.8999373 0 0 0 0.06372,0.0324 10.865078,4.8999373 0 0 0 0.06442,0.032 10.865078,4.8999373 0 0 0 0.06498,0.032 10.865078,4.8999373 0 0 0 0.06572,0.0314 10.865078,4.8999373 0 0 0 0.06642,0.0314 10.865078,4.8999373 0 0 0 0.06682,0.0311 10.865078,4.8999373 0 0 0 0.06754,0.0307 10.865078,4.8999373 0 0 0 0.06806,0.0305 10.865078,4.8999373 0 0 0 0.0688,0.0302 10.865078,4.8999373 0 0 0 0.06916,0.03 10.865078,4.8999373 0 0 0 0.0699,0.0296 10.865078,4.8999373 0 0 0 0.07042,0.0294 10.865078,4.8999373 0 0 0 0.07116,0.0293 10.865078,4.8999373 0 0 0 0.07152,0.0287 10.865078,4.8999373 0 0 0 0.07226,0.0285 10.865078,4.8999373 0 0 0 0.0726,0.0283 10.865078,4.8999373 0 0 0 0.07332,0.028 10.865078,4.8999373 0 0 0 0.07372,0.0276 10.865078,4.8999373 0 0 0 0.07442,0.0274 10.865078,4.8999373 0 0 0 0.07478,0.0271 10.865078,4.8999373 0 0 0 0.0755,0.0267 10.865078,4.8999373 0 0 0 0.02542,0.009 c 3.742708,0.33892 7.64037,0.3747 12.508492,-3.312534 -4.227786,3.017734 -7.769934,1.473284 -13.439132,-0.458698 z" />
  </g>
</svg>
